<?xml version="1.0" encoding="UTF-8" standalone="no"?>
<svg width="209.973mm" height="296.926mm"
 viewBox="0 0 2480.31 3507.87"
 xmlns="http://www.w3.org/2000/svg" xmlns:xlink="http://www.w3.org/1999/xlink"  version="1.2" baseProfile="tiny">
<title>temp</title>
<desc>Generated by MuseScore 2.0.1</desc>
<defs>
</defs>
<g fill="none" stroke="black" stroke-width="1" fill-rule="evenodd" stroke-linecap="square" stroke-linejoin="bevel" >

<g fill="none" stroke="#000000" stroke-opacity="1" stroke-width="0.544252" stroke-linecap="butt" stroke-linejoin="bevel" transform="matrix(3.125,0,0,3.125,609.468,266.929)"
font-family="MS Shell Dlg 2" font-size="34.375" font-weight="400" font-style="normal" 
>
<polyline fill="none" vector-effect="none" points="0,0 140.635,0 " />
<polyline fill="none" vector-effect="none" points="0,6.80315 140.635,6.80315 " />
<polyline fill="none" vector-effect="none" points="0,13.6063 140.635,13.6063 " />
<polyline fill="none" vector-effect="none" points="0,20.4094 140.635,20.4094 " />
<polyline fill="none" vector-effect="none" points="0,27.2126 140.635,27.2126 " />
</g>

<g fill="none" stroke="#000000" stroke-opacity="1" stroke-width="0.544252" stroke-linecap="butt" stroke-linejoin="bevel" transform="matrix(3.125,0,0,3.125,118.11,266.929)"
font-family="MS Shell Dlg 2" font-size="34.375" font-weight="400" font-style="normal" 
>
<polyline fill="none" vector-effect="none" points="0,0 157.234,0 " />
<polyline fill="none" vector-effect="none" points="0,6.80315 157.234,6.80315 " />
<polyline fill="none" vector-effect="none" points="0,13.6063 157.234,13.6063 " />
<polyline fill="none" vector-effect="none" points="0,20.4094 157.234,20.4094 " />
<polyline fill="none" vector-effect="none" points="0,27.2126 157.234,27.2126 " />
</g>

<g fill="none" stroke="#000000" stroke-opacity="1" stroke-width="1.0885" stroke-linecap="butt" stroke-linejoin="bevel" transform="matrix(3.125,0,0,3.125,1035.77,266.929)"
font-family="MS Shell Dlg 2" font-size="34.375" font-weight="400" font-style="normal" 
>
<polyline fill="none" vector-effect="none" points="0.544252,0 0.544252,27.2126 " />
<polyline fill="none" vector-effect="none" points="3.6737,0 3.6737,27.2126 " />
</g>

<g fill="none" stroke="#000000" stroke-opacity="1" stroke-width="1.0885" stroke-linecap="butt" stroke-linejoin="bevel" transform="matrix(3.125,0,0,3.125,606.066,266.929)"
font-family="MS Shell Dlg 2" font-size="34.375" font-weight="400" font-style="normal" 
>
<polyline fill="none" vector-effect="none" points="0.544252,0 0.544252,27.2126 " />
</g>

<g fill="none" stroke="#000000" stroke-opacity="1" stroke-width="0.884409" stroke-linecap="round" stroke-linejoin="bevel" transform="matrix(3.125,0,0,3.125,936.954,277.559)"
font-family="MS Shell Dlg 2" font-size="34.375" font-weight="400" font-style="normal" 
>
<polyline fill="none" vector-effect="none" points="0,1.27773 0,23.811 " />
</g>

<g fill="none" stroke="#000000" stroke-opacity="1" stroke-width="0.884409" stroke-linecap="round" stroke-linejoin="bevel" transform="matrix(3.125,0,0,3.125,836.757,288.189)"
font-family="MS Shell Dlg 2" font-size="34.375" font-weight="400" font-style="normal" 
>
<polyline fill="none" vector-effect="none" points="0,1.27773 0,22.9606 " />
</g>

<g fill="none" stroke="#000000" stroke-opacity="1" stroke-width="0.884409" stroke-linecap="round" stroke-linejoin="bevel" transform="matrix(3.125,0,0,3.125,736.559,298.819)"
font-family="MS Shell Dlg 2" font-size="34.375" font-weight="400" font-style="normal" 
>
<polyline fill="none" vector-effect="none" points="0,1.27773 0,22.1102 " />
</g>

<g fill="none" stroke="#000000" stroke-opacity="1" stroke-width="0.884409" stroke-linecap="round" stroke-linejoin="bevel" transform="matrix(3.125,0,0,3.125,636.361,309.449)"
font-family="MS Shell Dlg 2" font-size="34.375" font-weight="400" font-style="normal" 
>
<polyline fill="none" vector-effect="none" points="0,1.27773 0,21.2598 " />
</g>

<g fill="none" stroke="#000000" stroke-opacity="1" stroke-width="0.884409" stroke-linecap="round" stroke-linejoin="bevel" transform="matrix(3.125,0,0,3.125,537.206,320.079)"
font-family="MS Shell Dlg 2" font-size="34.375" font-weight="400" font-style="normal" 
>
<polyline fill="none" vector-effect="none" points="0,-1.27773 0,-22.1102 " />
</g>

<g fill="none" stroke="#000000" stroke-opacity="1" stroke-width="0.884409" stroke-linecap="round" stroke-linejoin="bevel" transform="matrix(3.125,0,0,3.125,441.472,330.709)"
font-family="MS Shell Dlg 2" font-size="34.375" font-weight="400" font-style="normal" 
>
<polyline fill="none" vector-effect="none" points="0,-1.27773 0,-22.9606 " />
</g>

<g fill="none" stroke="#000000" stroke-opacity="1" stroke-width="0.884409" stroke-linecap="round" stroke-linejoin="bevel" transform="matrix(3.125,0,0,3.125,345.739,341.339)"
font-family="MS Shell Dlg 2" font-size="34.375" font-weight="400" font-style="normal" 
>
<polyline fill="none" vector-effect="none" points="0,-1.27773 0,-23.811 " />
</g>

<g fill="none" stroke="#000000" stroke-opacity="1" stroke-width="0.884409" stroke-linecap="round" stroke-linejoin="bevel" transform="matrix(3.125,0,0,3.125,250.006,351.969)"
font-family="MS Shell Dlg 2" font-size="34.375" font-weight="400" font-style="normal" 
>
<polyline fill="none" vector-effect="none" points="0,-1.27773 0,-23.811 " />
</g>

<g fill="none" stroke="#000000" stroke-opacity="1" stroke-width="1" stroke-linecap="square" stroke-linejoin="bevel" transform="matrix(3.18898,0,0,3.18898,935.572,277.559)"
font-family="MScore" font-size="27" font-weight="400" font-style="normal" 
>
</g>

<g fill="#000000" fill-opacity="1" stroke="none" transform="matrix(3.18898,0,0,3.18898,935.572,277.559)"
font-family="MScore" font-size="27" font-weight="400" font-style="normal" 
>
<path vector-effect="none" fill-rule="nonzero" d="M5.93262,-3.71777 C6.77637,-3.71777 7.48828,-3.49805 8.06836,-3.05859 C8.61328,-2.58398 8.88574,-1.98633 8.88574,-1.26562 C8.88574,-0.0527344 8.26172,1.08105 7.01367,2.13574 C5.74805,3.19043 4.39453,3.71777 2.95312,3.71777 C2.10938,3.71777 1.39746,3.49805 0.817383,3.05859 C0.272461,2.58398 0,1.98633 0,1.26562 C0,0.0527344 0.632812,-1.08105 1.89844,-2.13574 C3.12891,-3.19043 4.47363,-3.71777 5.93262,-3.71777 "/>
</g>

<g fill="none" stroke="#000000" stroke-opacity="1" stroke-width="1" stroke-linecap="square" stroke-linejoin="bevel" transform="matrix(3.18898,0,0,3.18898,935.572,277.559)"
font-family="MScore" font-size="27" font-weight="400" font-style="normal" 
>
</g>

<g fill="none" stroke="#000000" stroke-opacity="1" stroke-width="1" stroke-linecap="square" stroke-linejoin="bevel" transform="matrix(3.18898,0,0,3.18898,835.375,288.189)"
font-family="MScore" font-size="27" font-weight="400" font-style="normal" 
>
</g>

<g fill="#000000" fill-opacity="1" stroke="none" transform="matrix(3.18898,0,0,3.18898,835.375,288.189)"
font-family="MScore" font-size="27" font-weight="400" font-style="normal" 
>
<path vector-effect="none" fill-rule="nonzero" d="M5.93262,-3.71777 C6.77637,-3.71777 7.48828,-3.49805 8.06836,-3.05859 C8.61328,-2.58398 8.88574,-1.98633 8.88574,-1.26562 C8.88574,-0.0527344 8.26172,1.08105 7.01367,2.13574 C5.74805,3.19043 4.39453,3.71777 2.95312,3.71777 C2.10938,3.71777 1.39746,3.49805 0.817383,3.05859 C0.272461,2.58398 0,1.98633 0,1.26562 C0,0.0527344 0.632812,-1.08105 1.89844,-2.13574 C3.12891,-3.19043 4.47363,-3.71777 5.93262,-3.71777 "/>
</g>

<g fill="none" stroke="#000000" stroke-opacity="1" stroke-width="1" stroke-linecap="square" stroke-linejoin="bevel" transform="matrix(3.18898,0,0,3.18898,835.375,288.189)"
font-family="MScore" font-size="27" font-weight="400" font-style="normal" 
>
</g>

<g fill="none" stroke="#000000" stroke-opacity="1" stroke-width="1" stroke-linecap="square" stroke-linejoin="bevel" transform="matrix(3.18898,0,0,3.18898,735.177,298.819)"
font-family="MScore" font-size="27" font-weight="400" font-style="normal" 
>
</g>

<g fill="#000000" fill-opacity="1" stroke="none" transform="matrix(3.18898,0,0,3.18898,735.177,298.819)"
font-family="MScore" font-size="27" font-weight="400" font-style="normal" 
>
<path vector-effect="none" fill-rule="nonzero" d="M5.93262,-3.71777 C6.77637,-3.71777 7.48828,-3.49805 8.06836,-3.05859 C8.61328,-2.58398 8.88574,-1.98633 8.88574,-1.26562 C8.88574,-0.0527344 8.26172,1.08105 7.01367,2.13574 C5.74805,3.19043 4.39453,3.71777 2.95312,3.71777 C2.10938,3.71777 1.39746,3.49805 0.817383,3.05859 C0.272461,2.58398 0,1.98633 0,1.26562 C0,0.0527344 0.632812,-1.08105 1.89844,-2.13574 C3.12891,-3.19043 4.47363,-3.71777 5.93262,-3.71777 "/>
</g>

<g fill="none" stroke="#000000" stroke-opacity="1" stroke-width="1" stroke-linecap="square" stroke-linejoin="bevel" transform="matrix(3.18898,0,0,3.18898,735.177,298.819)"
font-family="MScore" font-size="27" font-weight="400" font-style="normal" 
>
</g>

<g fill="none" stroke="#000000" stroke-opacity="1" stroke-width="1" stroke-linecap="square" stroke-linejoin="bevel" transform="matrix(3.18898,0,0,3.18898,634.98,309.449)"
font-family="MScore" font-size="27" font-weight="400" font-style="normal" 
>
</g>

<g fill="#000000" fill-opacity="1" stroke="none" transform="matrix(3.18898,0,0,3.18898,634.98,309.449)"
font-family="MScore" font-size="27" font-weight="400" font-style="normal" 
>
<path vector-effect="none" fill-rule="nonzero" d="M5.93262,-3.71777 C6.77637,-3.71777 7.48828,-3.49805 8.06836,-3.05859 C8.61328,-2.58398 8.88574,-1.98633 8.88574,-1.26562 C8.88574,-0.0527344 8.26172,1.08105 7.01367,2.13574 C5.74805,3.19043 4.39453,3.71777 2.95312,3.71777 C2.10938,3.71777 1.39746,3.49805 0.817383,3.05859 C0.272461,2.58398 0,1.98633 0,1.26562 C0,0.0527344 0.632812,-1.08105 1.89844,-2.13574 C3.12891,-3.19043 4.47363,-3.71777 5.93262,-3.71777 "/>
</g>

<g fill="none" stroke="#000000" stroke-opacity="1" stroke-width="1" stroke-linecap="square" stroke-linejoin="bevel" transform="matrix(3.18898,0,0,3.18898,634.98,309.449)"
font-family="MScore" font-size="27" font-weight="400" font-style="normal" 
>
</g>

<g fill="none" stroke="#000000" stroke-opacity="1" stroke-width="1" stroke-linecap="square" stroke-linejoin="bevel" transform="matrix(3.18898,0,0,3.18898,510.333,320.079)"
font-family="MScore" font-size="27" font-weight="400" font-style="normal" 
>
</g>

<g fill="#000000" fill-opacity="1" stroke="none" transform="matrix(3.18898,0,0,3.18898,510.333,320.079)"
font-family="MScore" font-size="27" font-weight="400" font-style="normal" 
>
<path vector-effect="none" fill-rule="nonzero" d="M5.93262,-3.71777 C6.77637,-3.71777 7.48828,-3.49805 8.06836,-3.05859 C8.61328,-2.58398 8.88574,-1.98633 8.88574,-1.26562 C8.88574,-0.0527344 8.26172,1.08105 7.01367,2.13574 C5.74805,3.19043 4.39453,3.71777 2.95312,3.71777 C2.10938,3.71777 1.39746,3.49805 0.817383,3.05859 C0.272461,2.58398 0,1.98633 0,1.26562 C0,0.0527344 0.632812,-1.08105 1.89844,-2.13574 C3.12891,-3.19043 4.47363,-3.71777 5.93262,-3.71777 "/>
</g>

<g fill="none" stroke="#000000" stroke-opacity="1" stroke-width="1" stroke-linecap="square" stroke-linejoin="bevel" transform="matrix(3.18898,0,0,3.18898,510.333,320.079)"
font-family="MScore" font-size="27" font-weight="400" font-style="normal" 
>
</g>

<g fill="none" stroke="#000000" stroke-opacity="1" stroke-width="1" stroke-linecap="square" stroke-linejoin="bevel" transform="matrix(3.18898,0,0,3.18898,414.6,330.709)"
font-family="MScore" font-size="27" font-weight="400" font-style="normal" 
>
</g>

<g fill="#000000" fill-opacity="1" stroke="none" transform="matrix(3.18898,0,0,3.18898,414.6,330.709)"
font-family="MScore" font-size="27" font-weight="400" font-style="normal" 
>
<path vector-effect="none" fill-rule="nonzero" d="M5.93262,-3.71777 C6.77637,-3.71777 7.48828,-3.49805 8.06836,-3.05859 C8.61328,-2.58398 8.88574,-1.98633 8.88574,-1.26562 C8.88574,-0.0527344 8.26172,1.08105 7.01367,2.13574 C5.74805,3.19043 4.39453,3.71777 2.95312,3.71777 C2.10938,3.71777 1.39746,3.49805 0.817383,3.05859 C0.272461,2.58398 0,1.98633 0,1.26562 C0,0.0527344 0.632812,-1.08105 1.89844,-2.13574 C3.12891,-3.19043 4.47363,-3.71777 5.93262,-3.71777 "/>
</g>

<g fill="none" stroke="#000000" stroke-opacity="1" stroke-width="1" stroke-linecap="square" stroke-linejoin="bevel" transform="matrix(3.18898,0,0,3.18898,414.6,330.709)"
font-family="MScore" font-size="27" font-weight="400" font-style="normal" 
>
</g>

<g fill="none" stroke="#000000" stroke-opacity="1" stroke-width="1" stroke-linecap="square" stroke-linejoin="bevel" transform="matrix(3.18898,0,0,3.18898,318.867,341.339)"
font-family="MScore" font-size="27" font-weight="400" font-style="normal" 
>
</g>

<g fill="#000000" fill-opacity="1" stroke="none" transform="matrix(3.18898,0,0,3.18898,318.867,341.339)"
font-family="MScore" font-size="27" font-weight="400" font-style="normal" 
>
<path vector-effect="none" fill-rule="nonzero" d="M5.93262,-3.71777 C6.77637,-3.71777 7.48828,-3.49805 8.06836,-3.05859 C8.61328,-2.58398 8.88574,-1.98633 8.88574,-1.26562 C8.88574,-0.0527344 8.26172,1.08105 7.01367,2.13574 C5.74805,3.19043 4.39453,3.71777 2.95312,3.71777 C2.10938,3.71777 1.39746,3.49805 0.817383,3.05859 C0.272461,2.58398 0,1.98633 0,1.26562 C0,0.0527344 0.632812,-1.08105 1.89844,-2.13574 C3.12891,-3.19043 4.47363,-3.71777 5.93262,-3.71777 "/>
</g>

<g fill="none" stroke="#000000" stroke-opacity="1" stroke-width="1" stroke-linecap="square" stroke-linejoin="bevel" transform="matrix(3.18898,0,0,3.18898,318.867,341.339)"
font-family="MScore" font-size="27" font-weight="400" font-style="normal" 
>
</g>

<g fill="none" stroke="#000000" stroke-opacity="1" stroke-width="1" stroke-linecap="square" stroke-linejoin="bevel" transform="matrix(3.18898,0,0,3.18898,223.134,351.969)"
font-family="MScore" font-size="27" font-weight="400" font-style="normal" 
>
</g>

<g fill="#000000" fill-opacity="1" stroke="none" transform="matrix(3.18898,0,0,3.18898,223.134,351.969)"
font-family="MScore" font-size="27" font-weight="400" font-style="normal" 
>
<path vector-effect="none" fill-rule="nonzero" d="M5.93262,-3.71777 C6.77637,-3.71777 7.48828,-3.49805 8.06836,-3.05859 C8.61328,-2.58398 8.88574,-1.98633 8.88574,-1.26562 C8.88574,-0.0527344 8.26172,1.08105 7.01367,2.13574 C5.74805,3.19043 4.39453,3.71777 2.95312,3.71777 C2.10938,3.71777 1.39746,3.49805 0.817383,3.05859 C0.272461,2.58398 0,1.98633 0,1.26562 C0,0.0527344 0.632812,-1.08105 1.89844,-2.13574 C3.12891,-3.19043 4.47363,-3.71777 5.93262,-3.71777 "/>
</g>

<g fill="none" stroke="#000000" stroke-opacity="1" stroke-width="1" stroke-linecap="square" stroke-linejoin="bevel" transform="matrix(3.18898,0,0,3.18898,223.134,351.969)"
font-family="MScore" font-size="27" font-weight="400" font-style="normal" 
>
</g>

<g fill="none" stroke="#000000" stroke-opacity="1" stroke-width="1" stroke-linecap="square" stroke-linejoin="bevel" transform="matrix(3.18898,0,0,3.18898,131.717,330.709)"
font-family="MScore" font-size="27" font-weight="400" font-style="normal" 
>
</g>

<g fill="#000000" fill-opacity="1" stroke="none" transform="matrix(3.18898,0,0,3.18898,131.717,330.709)"
font-family="MScore" font-size="27" font-weight="400" font-style="normal" 
>
<path vector-effect="none" fill-rule="nonzero" d="M9.91406,-6.9082 C9.91406,-6.9082 9.9668,-6.9082 10.0723,-6.9082 C10.1426,-6.92578 10.2041,-6.93457 10.2568,-6.93457 C12.2256,-6.93457 13.8428,-6.24023 15.1084,-4.85156 C16.374,-3.48047 17.0068,-1.88086 17.0068,-0.0527344 C17.0068,2.21484 16.0664,4.06055 14.1855,5.48438 C13.6934,5.87109 13.0518,6.1875 12.2607,6.43359 C12.3486,7.57617 12.3926,8.49902 12.3926,9.20215 C12.3926,9.34277 12.375,9.85254 12.3398,10.7314 C12.2695,12.3662 11.707,13.7812 10.6523,14.9766 C9.63281,16.1543 8.36719,16.7432 6.85547,16.7432 C5.43164,16.7432 4.21875,16.2422 3.2168,15.2402 C2.21484,14.2207 1.71387,12.9902 1.71387,11.5488 C1.71387,10.793 2.00391,10.1514 2.58398,9.62402 C3.18164,9.09668 3.87598,8.83301 4.66699,8.83301 C5.37012,8.83301 5.95898,9.10547 6.43359,9.65039 C6.92578,10.1602 7.17188,10.793 7.17188,11.5488 C7.17188,12.2344 6.92578,12.8232 6.43359,13.3154 C5.94141,13.8076 5.35254,14.0537 4.66699,14.0537 C4.38574,14.0537 4.11328,14.001 3.84961,13.8955 C4.62305,15.0381 5.65137,15.6094 6.93457,15.6094 C8.14746,15.6094 9.14062,15.1172 9.91406,14.1328 C10.7227,13.1133 11.1621,11.9268 11.2324,10.5732 C11.2676,9.72949 11.2852,9.24609 11.2852,9.12305 C11.2852,8.13867 11.25,7.33008 11.1797,6.69727 C10.3008,6.83789 9.51855,6.9082 8.83301,6.9082 C6.38965,6.9082 4.30664,5.94141 2.58398,4.00781 C0.896484,2.05664 0.0527344,-0.263672 0.0527344,-2.95312 C0.0527344,-3.51562 0.105469,-4.08691 0.210938,-4.66699 C0.316406,-5.1416 0.448242,-5.66016 0.606445,-6.22266 C0.694336,-6.53906 0.931641,-7.04883 1.31836,-7.75195 C1.45898,-7.96289 1.61719,-8.22656 1.79297,-8.54297 C1.96875,-8.85938 2.0918,-9.07031 2.16211,-9.17578 C2.33789,-9.52734 2.68066,-10.002 3.19043,-10.5996 C3.33105,-10.7578 3.47607,-10.9336 3.62549,-11.127 C3.7749,-11.3203 3.90234,-11.4785 4.00781,-11.6016 C4.11328,-11.7246 4.19238,-11.8213 4.24512,-11.8916 C4.29785,-11.9619 4.69336,-12.4277 5.43164,-13.2891 C5.60742,-13.4648 5.77881,-13.6538 5.9458,-13.856 C6.11279,-14.0581 6.24902,-14.2163 6.35449,-14.3306 C6.45996,-14.4448 6.53906,-14.5283 6.5918,-14.5811 C5.95898,-16.6729 5.56348,-18.3428 5.40527,-19.5908 C5.28223,-20.5928 5.2207,-21.9639 5.2207,-23.7041 C5.2207,-25.2334 5.57227,-26.666 6.27539,-28.002 C6.96094,-29.3906 7.91895,-30.5244 9.14941,-31.4033 C9.2373,-31.4561 9.3252,-31.4824 9.41309,-31.4824 C9.53613,-31.4824 9.62402,-31.4561 9.67676,-31.4033 C10.626,-30.2607 11.4434,-28.7754 12.1289,-26.9473 C12.832,-25.1191 13.1836,-23.458 13.1836,-21.9639 C13.1836,-20.2764 12.7793,-18.6943 11.9707,-17.2178 C11.0566,-15.6533 9.87891,-14.0361 8.4375,-12.3662 C8.80664,-11.2061 9.29883,-9.38672 9.91406,-6.9082 M12.1553,5.35254 C13.0693,5.01855 13.7812,4.44727 14.291,3.63867 C14.8535,2.86523 15.1348,1.99512 15.1348,1.02832 C15.1348,-0.219727 14.7129,-1.32715 13.8691,-2.29395 C13.0078,-3.2959 11.9092,-3.8584 10.5732,-3.98145 C11.3291,-0.272461 11.8564,2.83887 12.1553,5.35254 M1.95117,-0.738281 C1.95117,1.00195 2.6543,2.53125 4.06055,3.84961 C5.50195,5.13281 7.11914,5.77441 8.91211,5.77441 C9.65039,5.77441 10.3711,5.72168 11.0742,5.61621 C10.793,2.94434 10.2393,-0.254883 9.41309,-3.98145 C8.41113,-3.87598 7.61133,-3.52441 7.01367,-2.92676 C6.43359,-2.31152 6.14355,-1.61719 6.14355,-0.84375 C6.14355,0.492188 6.85547,1.57324 8.2793,2.39941 C8.40234,2.52246 8.46387,2.6543 8.46387,2.79492 C8.46387,2.93555 8.40234,3.06738 8.2793,3.19043 C8.17383,3.31348 8.04199,3.375 7.88379,3.375 C7.86621,3.375 7.78711,3.35742 7.64648,3.32227 C6.64453,2.77734 5.87109,2.07422 5.32617,1.21289 C4.81641,0.298828 4.56152,-0.624023 4.56152,-1.55566 C4.56152,-2.76855 4.93945,-3.86719 5.69531,-4.85156 C6.48633,-5.83594 7.51465,-6.46875 8.78027,-6.75 C8.28809,-8.71875 7.88379,-10.2568 7.56738,-11.3643 C7.28613,-11.0479 6.94775,-10.6655 6.55225,-10.2173 C6.15674,-9.76904 5.92383,-9.50098 5.85352,-9.41309 C5.2207,-8.58691 4.7373,-7.94531 4.40332,-7.48828 C3.80566,-6.66211 3.36621,-5.9502 3.08496,-5.35254 C2.78613,-4.68457 2.52246,-3.95508 2.29395,-3.16406 C2.06543,-2.4082 1.95117,-1.59961 1.95117,-0.738281 M10.7578,-27.5537 C9.43945,-26.9033 8.40234,-25.9717 7.64648,-24.7588 C6.87305,-23.5107 6.48633,-22.166 6.48633,-20.7246 C6.48633,-19.459 6.80273,-17.7539 7.43555,-15.6094 C8.70117,-17.1387 9.65039,-18.5537 10.2832,-19.8545 C10.9512,-21.2256 11.2852,-22.6582 11.2852,-24.1523 C11.2852,-25.2773 11.1094,-26.4111 10.7578,-27.5537 "/>
</g>

<g fill="none" stroke="#000000" stroke-opacity="1" stroke-width="1" stroke-linecap="square" stroke-linejoin="bevel" transform="matrix(3.18898,0,0,3.18898,131.717,330.709)"
font-family="MScore" font-size="27" font-weight="400" font-style="normal" 
>
</g>

<g fill="none" stroke="#000000" stroke-opacity="1" stroke-width="1" stroke-linecap="square" stroke-linejoin="bevel" transform="matrix(3.125,0,0,3.125,949.7,437.008)"
font-family="FreeSerif" font-size="15" font-weight="400" font-style="normal" 
>
</g>

<g fill="#000000" fill-opacity="1" stroke="none" transform="matrix(3.125,0,0,3.125,937.2,437.008)"
font-family="FreeSerif" font-size="15" font-weight="400" font-style="normal" 
>
<path vector-effect="none" fill-rule="nonzero" d="M4.36945,-5.57812 C5.2793,-4.91031 5.89852,-4.34961 6.22711,-3.89602 C6.5557,-3.44242 6.72,-2.92656 6.72,-2.34844 C6.72,-1.57125 6.45043,-0.950547 5.91129,-0.486328 C5.37215,-0.0221094 4.64914,0.21 3.74227,0.21 C2.8857,0.21 2.18785,-0.0221875 1.64871,-0.486563 C1.10957,-0.950937 0.84,-1.55156 0.84,-2.28844 C0.84,-2.79688 0.96418,-3.22305 1.21254,-3.56695 C1.4609,-3.91086 1.99555,-4.38687 2.81648,-4.995 C2.01523,-5.68281 1.50051,-6.19617 1.2723,-6.53508 C1.0441,-6.87398 0.93,-7.28766 0.93,-7.77609 C0.93,-8.46297 1.20207,-9.03367 1.74621,-9.4882 C2.29035,-9.94273 2.97562,-10.17 3.80203,-10.17 C4.55,-10.17 5.16582,-9.9677 5.64949,-9.56309 C6.13316,-9.15848 6.375,-8.64258 6.375,-8.01539 C6.375,-7.50695 6.22535,-7.07332 5.92605,-6.71449 C5.62676,-6.35566 5.10789,-5.97687 4.36945,-5.57812 M3.20461,-4.69594 C2.76664,-4.34703 2.45805,-3.99813 2.27883,-3.64922 C2.09961,-3.30031 2.01,-2.88664 2.01,-2.4082 C2.01,-1.76023 2.18422,-1.23688 2.53266,-0.838125 C2.88109,-0.439375 3.33906,-0.24 3.90656,-0.24 C4.39469,-0.24 4.79062,-0.392031 5.09437,-0.696094 C5.39813,-1.00016 5.55,-1.39641 5.55,-1.88484 C5.55,-2.04438 5.53258,-2.19391 5.49773,-2.33344 C5.46289,-2.47297 5.42801,-2.59508 5.39309,-2.69977 C5.35816,-2.80445 5.2884,-2.9216 5.18379,-3.05121 C5.07918,-3.18082 4.99453,-3.28301 4.92984,-3.35777 C4.86516,-3.43254 4.74812,-3.53969 4.57875,-3.67922 C4.40937,-3.81875 4.28234,-3.9184 4.19766,-3.97816 C4.11297,-4.03793 3.95367,-4.15258 3.71977,-4.32211 C3.48586,-4.49164 3.31414,-4.61625 3.20461,-4.69594 M3.93633,-5.84719 C3.94633,-5.85719 4.01355,-5.90453 4.13801,-5.98922 C4.26246,-6.07391 4.35207,-6.14117 4.40684,-6.19102 C4.4616,-6.24086 4.54621,-6.31812 4.66066,-6.42281 C4.77512,-6.5275 4.86219,-6.62719 4.92188,-6.72187 C4.98156,-6.81656 5.04875,-6.93121 5.12344,-7.06582 C5.19813,-7.20043 5.25289,-7.34996 5.28773,-7.51441 C5.32258,-7.67887 5.34,-7.85086 5.34,-8.03039 C5.34,-8.54867 5.1907,-8.95984 4.89211,-9.26391 C4.59352,-9.56797 4.19031,-9.72 3.6825,-9.72 C3.21469,-9.72 2.82898,-9.58043 2.52539,-9.30129 C2.2218,-9.02215 2.07,-8.66828 2.07,-8.23969 C2.07,-7.82094 2.21434,-7.42715 2.50301,-7.05832 C2.79168,-6.68949 3.26945,-6.28578 3.93633,-5.84719 "/>
</g>

<g fill="none" stroke="#000000" stroke-opacity="1" stroke-width="1" stroke-linecap="square" stroke-linejoin="bevel" transform="matrix(3.125,0,0,3.125,949.7,437.008)"
font-family="FreeSerif" font-size="15" font-weight="400" font-style="normal" 
>
</g>

<g fill="none" stroke="#000000" stroke-opacity="1" stroke-width="1" stroke-linecap="square" stroke-linejoin="bevel" transform="matrix(3.125,0,0,3.125,849.502,437.008)"
font-family="FreeSerif" font-size="15" font-weight="400" font-style="normal" 
>
</g>

<g fill="#000000" fill-opacity="1" stroke="none" transform="matrix(3.125,0,0,3.125,838.564,437.008)"
font-family="FreeSerif" font-size="15" font-weight="400" font-style="normal" 
>
<path vector-effect="none" fill-rule="nonzero" d="M6.735,-9.93 L6.735,-9.69328 L3.555,0.12 L2.58,0.12 L5.55,-8.835 L2.295,-8.835 C1.885,-8.835 1.5725,-8.75988 1.3575,-8.60965 C1.1425,-8.45941 0.875,-8.12883 0.555,-7.61789 L0.3,-7.73813 L1.185,-9.93 L6.735,-9.93"/>
</g>

<g fill="none" stroke="#000000" stroke-opacity="1" stroke-width="1" stroke-linecap="square" stroke-linejoin="bevel" transform="matrix(3.125,0,0,3.125,849.502,437.008)"
font-family="FreeSerif" font-size="15" font-weight="400" font-style="normal" 
>
</g>

<g fill="none" stroke="#000000" stroke-opacity="1" stroke-width="1" stroke-linecap="square" stroke-linejoin="bevel" transform="matrix(3.125,0,0,3.125,749.304,437.008)"
font-family="FreeSerif" font-size="15" font-weight="400" font-style="normal" 
>
</g>

<g fill="#000000" fill-opacity="1" stroke="none" transform="matrix(3.125,0,0,3.125,738.367,437.008)"
font-family="FreeSerif" font-size="15" font-weight="400" font-style="normal" 
>
<path vector-effect="none" fill-rule="nonzero" d="M3.86273,0.21 C2.85492,0.21 2.04418,-0.193281 1.43051,-0.999844 C0.816836,-1.80641 0.51,-2.87094 0.51,-4.19344 C0.51,-4.60281 0.550156,-5.02473 0.630469,-5.45918 C0.710781,-5.89363 0.886406,-6.38797 1.15734,-6.94219 C1.42828,-7.49641 1.77957,-7.9932 2.21121,-8.43258 C2.64285,-8.87195 3.24758,-9.26391 4.02539,-9.60844 C4.8032,-9.95297 5.69898,-10.1702 6.71273,-10.26 L6.74344,-10.02 C5.55359,-9.83 4.56039,-9.35242 3.76383,-8.58727 C2.96727,-7.82211 2.46813,-6.87445 2.26641,-5.7443 C2.73828,-6.01211 3.09469,-6.18668 3.33562,-6.26801 C3.57656,-6.34934 3.86273,-6.39 4.19414,-6.39 C5.06508,-6.39 5.75879,-6.11141 6.27527,-5.55422 C6.79176,-4.99703 7.05,-4.24508 7.05,-3.29836 C7.05,-2.26445 6.75402,-1.42125 6.16207,-0.76875 C5.57012,-0.11625 4.80367,0.21 3.86273,0.21 M3.6218,-5.73 C2.93914,-5.73 2.47984,-5.58082 2.24391,-5.28246 C2.00797,-4.9841 1.89,-4.54148 1.89,-3.95461 C1.89,-2.80102 2.08074,-1.89352 2.46223,-1.23211 C2.84371,-0.570703 3.36578,-0.24 4.02844,-0.24 C4.56062,-0.24 4.96727,-0.461289 5.24836,-0.903867 C5.52945,-1.34645 5.67,-1.97555 5.67,-2.79117 C5.67,-3.72602 5.4918,-4.44953 5.13539,-4.96172 C4.77898,-5.47391 4.27445,-5.73 3.6218,-5.73 "/>
</g>

<g fill="none" stroke="#000000" stroke-opacity="1" stroke-width="1" stroke-linecap="square" stroke-linejoin="bevel" transform="matrix(3.125,0,0,3.125,749.304,437.008)"
font-family="FreeSerif" font-size="15" font-weight="400" font-style="normal" 
>
</g>

<g fill="none" stroke="#000000" stroke-opacity="1" stroke-width="1" stroke-linecap="square" stroke-linejoin="bevel" transform="matrix(3.125,0,0,3.125,649.107,437.008)"
font-family="FreeSerif" font-size="15" font-weight="400" font-style="normal" 
>
</g>

<g fill="#000000" fill-opacity="1" stroke="none" transform="matrix(3.125,0,0,3.125,638.169,437.008)"
font-family="FreeSerif" font-size="15" font-weight="400" font-style="normal" 
>
<path vector-effect="none" fill-rule="nonzero" d="M5.355,-2.94797 C5.355,-3.48266 5.2375,-3.95684 5.0025,-4.37051 C4.7675,-4.78418 4.4825,-5.10453 4.1475,-5.33156 C3.8125,-5.55859 3.4375,-5.74523 3.0225,-5.89148 C2.6075,-6.03773 2.2475,-6.13355 1.9425,-6.17895 C1.6375,-6.22434 1.37,-6.24703 1.14,-6.24703 C1.02,-6.24703 0.96,-6.28742 0.96,-6.3682 C0.96,-6.39758 0.965,-6.42211 0.975,-6.4418 L2.61,-9.93 L5.745,-9.93 C5.905,-9.93 6.0325,-9.955 6.1275,-10.005 C6.2225,-10.055 6.325,-10.16 6.435,-10.32 L6.57,-10.215 L6,-8.95969 C5.96,-8.87656 5.845,-8.835 5.655,-8.835 L2.715,-8.835 L2.085,-7.54852 C3.545,-7.28633 4.63,-6.86012 5.34,-6.26988 C6.05,-5.67965 6.405,-4.81445 6.405,-3.6743 C6.405,-3.07742 6.3125,-2.54637 6.1275,-2.08113 C5.9425,-1.6159 5.7075,-1.24164 5.4225,-0.958359 C5.1375,-0.675078 4.8075,-0.442422 4.4325,-0.260391 C4.0575,-0.0783594 3.6975,0.0455469 3.3525,0.111328 C3.0075,0.177109 2.66,0.21 2.31,0.21 C1.75,0.21 1.305,0.1275 0.975,-0.0375 C0.645,-0.2025 0.48,-0.43 0.48,-0.72 C0.48,-1.09 0.695,-1.275 1.125,-1.275 C1.405,-1.275 1.7675,-1.1225 2.2125,-0.8175 C2.6575,-0.5125 3.01,-0.36 3.27,-0.36 C3.86,-0.36 4.355,-0.609727 4.755,-1.10918 C5.155,-1.60863 5.355,-2.22156 5.355,-2.94797 "/>
</g>

<g fill="none" stroke="#000000" stroke-opacity="1" stroke-width="1" stroke-linecap="square" stroke-linejoin="bevel" transform="matrix(3.125,0,0,3.125,649.107,437.008)"
font-family="FreeSerif" font-size="15" font-weight="400" font-style="normal" 
>
</g>

<g fill="none" stroke="#000000" stroke-opacity="1" stroke-width="1" stroke-linecap="square" stroke-linejoin="bevel" transform="matrix(3.125,0,0,3.125,524.46,437.008)"
font-family="FreeSerif" font-size="15" font-weight="400" font-style="normal" 
>
</g>

<g fill="#000000" fill-opacity="1" stroke="none" transform="matrix(3.125,0,0,3.125,513.523,437.008)"
font-family="FreeSerif" font-size="15" font-weight="400" font-style="normal" 
>
<path vector-effect="none" fill-rule="nonzero" d="M7.08,-3.405 L7.08,-2.505 L5.55,-2.505 L5.55,0 L4.395,0 L4.395,-2.505 L0.18,-2.505 L0.18,-3.405 L4.89,-10.14 L5.55,-10.14 L5.55,-3.405 L7.08,-3.405 M4.38,-3.405 L4.38,-8.55 L0.78,-3.405 L4.38,-3.405"/>
</g>

<g fill="none" stroke="#000000" stroke-opacity="1" stroke-width="1" stroke-linecap="square" stroke-linejoin="bevel" transform="matrix(3.125,0,0,3.125,524.46,437.008)"
font-family="FreeSerif" font-size="15" font-weight="400" font-style="normal" 
>
</g>

<g fill="none" stroke="#000000" stroke-opacity="1" stroke-width="1" stroke-linecap="square" stroke-linejoin="bevel" transform="matrix(3.125,0,0,3.125,428.727,437.008)"
font-family="FreeSerif" font-size="15" font-weight="400" font-style="normal" 
>
</g>

<g fill="#000000" fill-opacity="1" stroke="none" transform="matrix(3.125,0,0,3.125,416.227,437.008)"
font-family="FreeSerif" font-size="15" font-weight="400" font-style="normal" 
>
<path vector-effect="none" fill-rule="nonzero" d="M1.215,-1.17 C1.445,-1.17 1.7875,-1.035 2.2425,-0.765 C2.6975,-0.495 3.095,-0.36 3.435,-0.36 C3.985,-0.36 4.45,-0.573594 4.83,-1.00078 C5.21,-1.42797 5.4,-1.95453 5.4,-2.58047 C5.4,-2.96797 5.34402,-3.31074 5.23207,-3.60879 C5.12012,-3.90684 4.96512,-4.13781 4.76707,-4.30172 C4.56902,-4.46563 4.325,-4.59973 4.035,-4.70402 C3.745,-4.80832 3.4725,-4.87539 3.2175,-4.90523 C2.9625,-4.93508 2.69,-4.95 2.4,-4.95 L2.4,-5.145 C2.74,-5.265 3.0325,-5.3825 3.2775,-5.4975 C3.5225,-5.6125 3.78,-5.7675 4.05,-5.9625 C4.32,-6.1575 4.5275,-6.395 4.6725,-6.675 C4.8175,-6.955 4.89,-7.275 4.89,-7.635 C4.89,-8.105 4.7375,-8.49 4.4325,-8.79 C4.1275,-9.09 3.73,-9.24 3.24,-9.24 C2.77,-9.24 2.3575,-9.1125 2.0025,-8.8575 C1.6475,-8.6025 1.315,-8.2 1.005,-7.65 L0.78,-7.71 C1.04,-8.42 1.3925,-9.0025 1.8375,-9.4575 C2.2825,-9.9125 2.915,-10.14 3.735,-10.14 C4.425,-10.14 4.985,-9.95 5.415,-9.57 C5.845,-9.19 6.06,-8.695 6.06,-8.085 C6.06,-7.675 5.955,-7.315 5.745,-7.005 C5.535,-6.695 5.17,-6.365 4.65,-6.015 C5.25,-5.75609 5.72,-5.42492 6.06,-5.02148 C6.4,-4.61805 6.57,-4.04281 6.57,-3.29578 C6.57,-2.2325 6.1625,-1.38238 5.3475,-0.74543 C4.5325,-0.108477 3.53,0.21 2.34,0.21 C1.82,0.21 1.4075,0.1325 1.1025,-0.0225 C0.7975,-0.1775 0.645,-0.385 0.645,-0.645 C0.645,-0.805 0.6975,-0.9325 0.8025,-1.0275 C0.9075,-1.1225 1.045,-1.17 1.215,-1.17 "/>
</g>

<g fill="none" stroke="#000000" stroke-opacity="1" stroke-width="1" stroke-linecap="square" stroke-linejoin="bevel" transform="matrix(3.125,0,0,3.125,428.727,437.008)"
font-family="FreeSerif" font-size="15" font-weight="400" font-style="normal" 
>
</g>

<g fill="none" stroke="#000000" stroke-opacity="1" stroke-width="1" stroke-linecap="square" stroke-linejoin="bevel" transform="matrix(3.125,0,0,3.125,332.994,437.008)"
font-family="FreeSerif" font-size="15" font-weight="400" font-style="normal" 
>
</g>

<g fill="#000000" fill-opacity="1" stroke="none" transform="matrix(3.125,0,0,3.125,320.494,437.008)"
font-family="FreeSerif" font-size="15" font-weight="400" font-style="normal" 
>
<path vector-effect="none" fill-rule="nonzero" d="M0.465,-7.14422 C0.515,-7.37391 0.565,-7.57363 0.615,-7.7434 C0.665,-7.91316 0.7725,-8.16031 0.9375,-8.48484 C1.1025,-8.80937 1.2875,-9.07898 1.4925,-9.29367 C1.6975,-9.50836 1.9825,-9.70059 2.3475,-9.87035 C2.7125,-10.0401 3.125,-10.125 3.585,-10.125 C4.36078,-10.125 5.01473,-9.87059 5.54684,-9.36176 C6.07895,-8.85293 6.345,-8.22438 6.345,-7.47609 C6.345,-6.33969 5.70719,-5.09766 4.43156,-3.75 L1.92,-1.095 L5.49328,-1.095 C5.83219,-1.095 6.08398,-1.15281 6.24867,-1.26844 C6.41336,-1.38406 6.6357,-1.65813 6.9157,-2.09062 L7.1107,-2.01516 L6.2857,0 L0.45,0 L0.45,-0.172969 L3.12,-3.00586 C4.42,-4.38492 5.07,-5.68398 5.07,-6.90305 C5.07,-7.53664 4.875,-8.04953 4.485,-8.44172 C4.095,-8.83391 3.585,-9.03 2.955,-9.03 C2.435,-9.03 2.0175,-8.88668 1.7025,-8.60004 C1.3875,-8.3134 1.08,-7.80305 0.78,-7.06898 L0.465,-7.14422"/>
</g>

<g fill="none" stroke="#000000" stroke-opacity="1" stroke-width="1" stroke-linecap="square" stroke-linejoin="bevel" transform="matrix(3.125,0,0,3.125,332.994,437.008)"
font-family="FreeSerif" font-size="15" font-weight="400" font-style="normal" 
>
</g>

<g fill="none" stroke="#000000" stroke-opacity="1" stroke-width="1" stroke-linecap="square" stroke-linejoin="bevel" transform="matrix(3.125,0,0,3.125,237.261,437.008)"
font-family="FreeSerif" font-size="15" font-weight="400" font-style="normal" 
>
</g>

<g fill="#000000" fill-opacity="1" stroke="none" transform="matrix(3.125,0,0,3.125,226.324,437.008)"
font-family="FreeSerif" font-size="15" font-weight="400" font-style="normal" 
>
<path vector-effect="none" fill-rule="nonzero" d="M2.745,-8.895 C2.565,-8.895 2.205,-8.785 1.665,-8.565 L1.665,-8.775 L4.35141,-10.14 L4.47,-10.11 L4.47,-1.11 C4.47,-0.75 4.56094,-0.515 4.74281,-0.405 C4.92469,-0.295 5.31375,-0.235 5.91,-0.225 L5.91,0 L1.755,0 L1.755,-0.225 C2.32094,-0.245 2.70242,-0.3275 2.89945,-0.4725 C3.09648,-0.6175 3.195,-0.925 3.195,-1.395 L3.195,-8.19 C3.195,-8.66 3.045,-8.895 2.745,-8.895 "/>
</g>

<g fill="none" stroke="#000000" stroke-opacity="1" stroke-width="1" stroke-linecap="square" stroke-linejoin="bevel" transform="matrix(3.125,0,0,3.125,237.261,437.008)"
font-family="FreeSerif" font-size="15" font-weight="400" font-style="normal" 
>
</g>

<g fill="none" stroke="#000000" stroke-opacity="1" stroke-width="1" stroke-linecap="square" stroke-linejoin="bevel" transform="matrix(3.125,0,0,3.125,124.807,239.026)"
font-family="Wingdings" font-size="18" font-weight="700" font-style="normal" 
>
</g>

<g fill="#000000" fill-opacity="1" stroke="none" transform="matrix(3.125,0,0,3.125,124.807,239.026)"
font-family="Wingdings" font-size="18" font-weight="700" font-style="normal" 
>
<path vector-effect="none" fill-rule="nonzero" d="M1.49414,-6.55225 C1.49414,-8.36526 2.13293,-9.91056 3.4105,-11.1881 C4.68807,-12.4657 6.23337,-13.1045 8.04639,-13.1045 C9.86169,-13.1045 11.409,-12.4648 12.6884,-11.1855 C13.9677,-9.9061 14.6074,-8.36169 14.6074,-6.55225 C14.6074,-4.74097 13.9682,-3.19611 12.6898,-1.91766 C11.4113,-0.639221 9.86353,0 8.04639,0 C6.23154,0 4.68578,-0.638329 3.40913,-1.91499 C2.13247,-3.19164 1.49414,-4.7374 1.49414,-6.55225 M2.70703,-6.54799 C2.70703,-5.06685 3.22739,-3.80592 4.26812,-2.76519 C5.30885,-1.72446 6.56685,-1.2041 8.04213,-1.2041 C9.51979,-1.2041 10.7813,-1.72538 11.8266,-2.76794 C12.8719,-3.81049 13.3945,-5.07051 13.3945,-6.54799 C13.3945,-8.02373 12.8714,-9.28473 11.8251,-10.331 C10.7789,-11.3773 9.51787,-11.9004 8.04213,-11.9004 C6.56877,-11.9004 5.31125,-11.3782 4.26956,-10.3337 C3.22787,-9.28931 2.70703,-8.02739 2.70703,-6.54799 M7.44434,-2.33789 L7.44434,-9.5625 L6.16992,-9.5625 L6.16992,-10.5656 L8.88574,-10.7842 L8.88574,-2.33789 L7.44434,-2.33789"/>
</g>

<g fill="none" stroke="#000000" stroke-opacity="1" stroke-width="1" stroke-linecap="square" stroke-linejoin="bevel" transform="matrix(3.125,0,0,3.125,124.807,239.026)"
font-family="Wingdings" font-size="18" font-weight="700" font-style="normal" 
>
</g>
</g>
</svg>
